<svg width="1025" height="769" viewBox="0 0 1025 769" fill="none" xmlns="http://www.w3.org/2000/svg">
<g clip-path="url(#clip0_73_2)">
<path d="M0.321838 0.689697H1024.32V768.69H0.321838V0.689697Z" fill="#032EA1"/>
<path d="M0.321838 192.69H1024.32V576.69H0.321838V192.69Z" fill="#E00025"/>
<path d="M404.162 362.61H622.658V446.706H404.162V362.61Z" fill="white" stroke="black" stroke-width="1.92" stroke-linejoin="bevel"/>
<path d="M611.522 408.882H618.242V440.562H611.522V408.882ZM404.162 393.33H622.658V402.93H404.162V393.33ZM404.162 379.89H622.658V388.722H404.162V379.89Z" fill="white" stroke="black" stroke-width="1.92" stroke-linejoin="bevel"/>
<path d="M404.162 366.834H622.658V375.09H404.162V366.834Z" fill="white" stroke="black" stroke-width="1.728" stroke-linejoin="bevel"/>
<path d="M461.762 408.882H468.674V440.562H461.762V408.882ZM555.842 408.882H562.754V440.562H555.842V408.882ZM406.082 408.882H412.802V440.562H406.082V408.882ZM419.522 408.882H426.242V440.562H419.522V408.882ZM433.922 408.882H440.642V440.562H433.922V408.882ZM448.322 408.882H455.042V440.562H448.322V408.882ZM568.898 408.882H575.81V440.562H568.898V408.882ZM583.298 408.882H590.21V440.562H583.298V408.882ZM597.698 408.882H604.61V440.562H597.698V408.882Z" fill="white" stroke="black" stroke-width="1.92" stroke-linejoin="bevel"/>
<path d="M318.722 450.93C322.737 448.744 325.76 445.102 327.17 440.754H697.922C699.332 445.102 702.355 448.744 706.37 450.93H318.722Z" fill="white" stroke="black" stroke-width="1.92"/>
<path d="M507.842 234.546C507.842 234.546 507.65 226.674 512.258 226.482C516.674 226.482 516.482 234.546 516.482 234.546H507.842ZM483.842 339.186V328.626C483.842 323.25 478.466 322.866 478.466 319.026C478.466 319.026 477.698 313.266 479.234 310.578C481.346 318.258 484.994 316.914 484.994 313.65C484.994 310.962 483.074 308.274 478.658 301.554C477.122 299.442 478.082 292.722 480.002 290.226C480.77 295.986 481.73 298.866 484.226 298.866C485.762 298.866 486.914 297.906 486.914 295.026C486.914 291.186 484.418 289.266 483.074 285.81C482.412 284.09 482.259 282.216 482.634 280.411C483.008 278.607 483.894 276.948 485.186 275.634C486.146 281.394 485.954 283.698 488.45 283.698C493.634 281.97 488.45 274.482 487.298 272.562C486.146 270.45 489.218 266.034 489.218 266.034C490.754 271.218 491.138 271.602 493.058 271.026C495.362 270.45 494.978 267.186 492.29 264.498C490.562 262.578 490.754 260.082 492.674 258.162C494.594 261.81 496.898 261.618 497.09 259.314L495.554 250.866H528.962L527.234 259.122C526.85 261.426 529.922 262.002 531.842 258.162C533.762 260.082 533.954 262.77 532.226 264.498C529.538 267.186 529.154 270.45 531.458 271.026C533.378 271.602 533.762 271.026 535.298 266.034C535.298 266.034 538.178 268.914 537.218 272.562C536.066 274.482 530.882 282.162 536.066 283.698C538.562 283.698 538.37 281.394 539.33 275.634C540.589 276.969 541.439 278.637 541.78 280.441C542.12 282.244 541.936 284.107 541.25 285.81C540.098 289.266 537.41 291.186 537.41 295.026C537.41 297.906 538.754 298.866 540.29 298.866C542.786 298.866 543.746 296.178 544.514 290.226C546.434 292.722 547.394 299.442 545.858 301.746C541.442 308.274 539.33 310.962 539.33 313.65C539.33 316.914 543.17 318.258 545.09 310.578C546.818 313.266 546.05 319.026 546.05 319.026C546.05 322.866 540.866 323.25 540.674 328.626V339.186H483.842ZM497.666 250.866L496.898 244.914H527.426L526.658 250.866H497.666ZM499.586 244.722L499.202 239.922H525.122L524.546 244.722H499.586ZM504.002 239.73L503.426 234.738H520.706L520.514 239.73H504.002ZM567.362 450.93C563.522 449.586 557.762 445.362 557.762 441.33V394.674L562.754 388.146H461.762L466.562 394.674V441.33C466.562 445.362 462.722 449.586 458.882 450.93H567.362Z" fill="white" stroke="black" stroke-width="1.92"/>
<path d="M479.426 408.882H486.338V440.562H479.426V408.882ZM537.794 408.882H544.706V440.562H537.794V408.882Z" fill="white" stroke="black" stroke-width="1.92" stroke-linejoin="bevel"/>
<path d="M459.842 335.154V388.146H563.522V335.154C562.324 335.591 561.247 336.307 560.379 337.241C559.511 338.176 558.878 339.303 558.53 340.53V363.186H465.026V340.53C465.026 340.53 463.874 336.69 459.65 335.154H459.842Z" fill="white" stroke="black" stroke-width="1.92"/>
<path d="M549.314 450.93C545.858 449.586 538.562 445.362 538.562 441.33V389.106C539.33 386.226 543.17 384.498 545.666 382.578H477.122C480.386 384.498 484.034 385.842 485.378 389.106V441.33C485.378 445.362 479.618 449.586 476.162 450.93H549.314Z" fill="white" stroke="black" stroke-width="1.92"/>
<path d="M558.53 383.154V345.522H549.122V341.874H474.626V345.714H465.026V383.154H558.53ZM534.722 450.93C531.266 449.586 526.466 445.362 526.466 441.33V396.786L529.154 392.754H495.17L498.05 396.594V441.33C498.05 445.362 493.058 449.586 489.794 450.93H534.722Z" fill="white" stroke="black" stroke-width="1.92"/>
<path d="M503.426 392.754H520.706V450.93H503.426V392.754Z" fill="white" stroke="black" stroke-width="1.92"/>
<path d="M529.73 379.89C529.73 376.05 540.866 375.858 546.626 372.594H477.506C483.266 375.858 494.21 376.05 494.21 379.89L496.514 387.378L525.314 388.53L529.73 379.89Z" fill="white" stroke="black" stroke-width="1.92" stroke-linejoin="bevel"/>
<path d="M543.17 339.186C543.17 329.778 543.554 326.322 546.434 326.322V355.89C539.33 358.578 534.338 367.41 534.338 367.41H489.794C489.794 367.41 484.802 358.578 477.698 355.89V326.13C481.154 326.13 481.154 329.97 481.154 338.994L543.17 339.186ZM546.434 335.346C546.434 324.594 555.842 323.442 555.842 323.442V333.042C552.194 332.85 550.466 336.114 550.466 340.722C550.466 345.522 553.346 345.522 553.346 345.522V372.786H546.434V335.346Z" fill="white" stroke="black" stroke-width="1.92"/>
<path d="M477.698 335.346C477.698 324.594 468.29 323.442 468.29 323.442V333.042C471.938 332.85 473.666 336.114 473.666 340.722C473.666 345.522 470.786 345.522 470.786 345.522V372.786H477.698V335.346Z" fill="white" stroke="black" stroke-width="1.92"/>
<path d="M495.938 261.042H528.962M492.098 271.41H532.418M488.258 283.89H536.066M484.226 299.058H540.866M482.882 316.338H541.25" stroke="black" stroke-width="1.536"/>
<path d="M465.218 373.17H558.53M494.786 373.17H529.346V385.842H494.786V373.17Z" stroke="black" stroke-width="1.92"/>
<path d="M490.562 344.754C496.322 351.666 495.554 363.378 495.554 370.29H528.962C528.962 363.378 528.194 351.666 533.954 344.754H490.562ZM509.186 266.034L504.578 263.538V256.818C506.498 257.394 508.418 257.586 508.802 260.658C509.378 256.242 510.722 256.626 512.45 254.898C514.37 256.626 515.33 256.242 516.098 260.658C516.098 257.586 518.402 257.394 520.13 256.818V263.538L515.714 265.842L509.186 266.034Z" fill="white" stroke="black" stroke-width="1.92"/>
<path d="M508.802 276.978L501.122 271.602V265.65C504.002 266.226 506.882 266.61 507.266 269.874C508.034 265.074 509.762 262.77 512.45 260.85C514.946 262.77 516.674 265.074 517.634 269.874C517.826 266.61 520.898 266.226 523.394 265.65V271.794L515.906 276.978H508.802Z" fill="white" stroke="black" stroke-width="1.92"/>
<path d="M508.226 294.066L499.586 286.386V277.362C502.658 278.13 506.114 278.514 506.498 283.314C507.458 276.594 509.378 272.946 512.258 270.258C515.33 272.946 517.25 276.594 518.402 283.314C518.786 278.514 522.242 278.13 525.314 277.362V286.386L516.482 294.066H508.226ZM524.354 304.242L516.674 315.186H507.65L499.778 304.242H524.354ZM495.17 322.482C499.01 324.594 500.546 329.01 500.93 337.074H523.202C523.586 329.01 525.122 324.594 528.962 322.482H495.17Z" fill="white" stroke="black" stroke-width="1.92"/>
<path d="M529.346 304.05V293.298C527.693 293.65 526.156 294.416 524.88 295.524C523.604 296.632 522.63 298.046 522.05 299.634C522.05 295.794 517.25 287.538 512.066 283.314C506.882 287.922 501.89 295.602 502.082 299.442C501.122 296.562 498.626 294.258 494.786 293.298V304.242L529.346 304.05Z" fill="white" stroke="black" stroke-width="1.92" stroke-linejoin="bevel"/>
<path d="M530.882 322.482V311.73C526.85 312.882 524.162 314.994 523.01 318.066C523.01 314.226 517.826 305.97 512.066 301.746C506.306 306.546 500.93 314.034 501.122 318.066C500.162 315.186 497.282 312.882 493.25 311.73V322.674L530.882 322.482Z" fill="white" stroke="black" stroke-width="1.92" stroke-linejoin="bevel"/>
<path d="M535.49 344.946V332.274C531.492 333.522 528.038 336.096 525.698 339.57C525.698 332.85 518.018 322.29 512.066 319.026C505.922 322.482 498.434 333.234 498.434 339.57C496.034 336.072 492.512 333.498 488.45 332.274V344.946H535.49Z" fill="white" stroke="black" stroke-width="1.92" stroke-linejoin="bevel"/>
<path d="M532.802 373.17V360.114C528.194 361.842 527.042 366.066 525.506 369.138C526.082 355.89 518.21 341.874 512.066 338.226C505.922 341.874 497.858 356.274 498.626 368.946C497.09 366.258 495.746 361.842 491.33 360.114V372.978L532.802 373.17Z" fill="white" stroke="black" stroke-width="1.92" stroke-linejoin="bevel"/>
<path d="M529.73 392.754V379.698C524.93 380.85 524.738 382.578 523.202 385.458C523.778 377.586 518.21 368.562 512.066 365.106C505.922 368.562 500.546 377.586 500.93 385.458C499.394 382.578 499.202 380.85 494.402 379.698V392.754H529.73Z" fill="white" stroke="black" stroke-width="1.92"/>
<path d="M327.362 440.754V401.586C326.018 396.594 321.602 391.986 318.53 391.218V356.658L325.634 360.498L333.89 396.786V440.946L327.362 440.754Z" fill="white" stroke="black" stroke-width="1.92"/>
<path d="M327.362 440.946V401.586C326.018 396.594 321.602 391.986 318.53 391.218V354.354C323.33 354.354 325.634 360.498 325.634 360.498L333.89 396.786V440.754L327.362 440.946Z" fill="white" stroke="black" stroke-width="1.92"/>
<path d="M322.178 450.93C325.442 449.586 330.242 445.362 330.242 441.33V392.178L327.938 388.338H411.842L408.578 392.178V441.33C408.719 443.364 409.397 445.325 410.544 447.012C411.691 448.699 413.265 450.051 415.106 450.93H322.178Z" fill="white" stroke="black" stroke-width="1.92"/>
<path d="M398.018 450.93C394.754 449.586 389.954 445.362 389.954 441.33V394.674L396.866 388.146H340.034L346.946 394.674V441.33C346.946 445.362 342.146 449.586 338.882 450.93H398.018Z" fill="white" stroke="black" stroke-width="1.92"/>
<path d="M390.146 450.93C386.882 449.586 381.89 445.362 381.89 441.33V399.09L386.498 392.754H350.402L355.01 399.09V441.33C355.01 445.362 350.21 449.586 346.754 450.93H390.146Z" fill="white" stroke="black" stroke-width="1.92"/>
<path d="M360.002 392.754H377.09V451.122H359.81L360.002 392.754Z" fill="white" stroke="black" stroke-width="1.92"/>
<path d="M336.386 408.882H343.298V440.562H336.386V408.882ZM395.522 408.882H402.242V440.562H395.33L395.522 408.882ZM330.434 355.506H338.882V388.146H330.434V355.506ZM330.434 349.362H338.69V355.506H330.434V349.362ZM398.786 362.61H410.498V387.57H398.786V362.61Z" fill="white"/>
<path d="M330.434 355.506H338.882V388.146H330.434V355.506ZM330.434 355.506H338.69V349.362H330.434V355.506ZM336.386 408.882H343.298V440.562H336.386V408.882ZM395.522 408.882H402.242V440.562H395.33L395.522 408.882ZM398.786 362.61H410.498V387.57H398.786V362.61Z" stroke="black" stroke-width="1.92" stroke-linejoin="bevel"/>
<path d="M338.69 387.762V332.082C340.994 332.082 341.378 340.338 346.754 340.338C349.634 340.338 349.442 336.882 347.714 334.194C346.37 331.698 344.642 328.434 346.946 322.098C348.674 326.898 352.898 328.434 352.13 325.554C350.786 320.37 346.754 319.41 349.826 311.538C350.786 318.066 355.01 317.874 354.05 314.034C352.898 309.618 350.402 307.698 353.474 301.554C355.202 308.658 357.314 308.274 357.314 303.858C357.314 297.33 357.314 290.418 365.378 287.922C365.378 287.922 365.954 282.162 369.026 282.162C371.906 282.162 372.482 287.922 372.482 287.922C380.738 290.418 380.546 297.522 380.546 303.858C380.546 308.274 382.658 308.658 384.386 301.554C387.458 307.698 384.962 309.618 383.81 314.034C382.85 317.874 387.074 318.066 388.034 311.538C391.106 319.41 387.074 320.37 385.73 325.554C384.962 328.434 389.186 326.898 390.914 322.098C393.218 328.434 391.49 331.698 390.146 334.194C388.61 336.882 388.226 340.338 391.106 340.338C396.482 340.338 396.866 332.274 399.17 332.274V387.762H338.69ZM325.442 345.714V388.146H330.242V345.714C328.514 344.754 326.978 344.754 325.442 345.714Z" fill="white" stroke="black" stroke-width="1.92"/>
<path d="M325.826 373.17C331.778 376.242 337.73 379.89 339.266 388.146H325.826V373.17ZM408.77 360.498V388.146H412.61V360.498C411.458 359.922 409.73 359.73 408.77 360.498Z" fill="white" stroke="black" stroke-width="1.92"/>
<path d="M412.61 373.17C406.658 376.05 400.706 379.506 399.17 387.954H412.61V373.17ZM373.058 308.466L376.514 305.586V301.746C375.362 301.746 374.594 302.322 373.634 303.666C373.261 302.433 372.644 301.287 371.819 300.298C370.995 299.308 369.979 298.495 368.834 297.906C367.672 298.453 366.631 299.227 365.773 300.184C364.916 301.14 364.259 302.259 363.842 303.474C362.882 302.13 362.306 301.938 360.962 301.554V305.394L364.418 308.466H373.058Z" fill="white" stroke="black" stroke-width="1.92"/>
<path d="M374.978 317.874L376.514 314.226V309.426C375.362 309.426 374.594 310.002 373.634 311.346C373.261 310.113 372.644 308.967 371.819 307.978C370.995 306.988 369.979 306.175 368.834 305.586C367.672 306.133 366.631 306.907 365.773 307.864C364.916 308.82 364.259 309.939 363.842 311.154C362.882 309.81 362.306 309.618 360.962 309.426V314.226L362.498 317.874H374.978Z" fill="white" stroke="black" stroke-width="1.92"/>
<path d="M375.362 330.546L380.354 324.21V318.066C378.434 318.066 377.474 319.026 376.13 321.138C374.786 316.722 372.29 315.954 368.834 313.842C365.186 315.762 362.69 316.722 361.538 320.946C360.002 318.834 359.042 318.258 357.122 318.066V324.21L362.306 330.546H375.362Z" fill="white" stroke="black" stroke-width="1.92"/>
<path d="M376.706 343.026C376.706 343.026 382.85 337.842 383.042 334.962V328.242C380.738 328.434 378.626 329.01 376.898 331.89C375.362 326.322 373.058 324.786 368.834 322.29C364.418 324.786 362.114 326.322 360.77 331.89C358.85 329.01 356.93 328.434 354.434 328.05V334.962C356.046 338.007 358.192 340.738 360.77 343.026H376.706Z" fill="white" stroke="black" stroke-width="1.92"/>
<path d="M379.202 366.066C379.202 366.066 387.65 357.042 387.842 353.394V343.026C384.77 343.41 381.698 345.522 379.394 349.938C377.474 341.298 374.402 335.346 368.834 331.122C363.074 335.346 360.002 341.298 358.082 349.938C355.778 345.522 352.898 343.41 349.826 343.026V353.394C350.402 357.042 358.274 366.066 358.274 366.066H379.202Z" fill="white" stroke="black" stroke-width="1.92"/>
<path d="M379.202 379.698C379.202 379.698 386.306 372.594 387.842 369.522V359.154C384.77 359.538 381.698 361.65 379.394 365.874C378.88 362.38 377.683 359.022 375.871 355.991C374.059 352.96 371.668 350.316 368.834 348.21C363.074 352.434 360.002 357.234 358.082 365.874C355.778 361.65 352.898 359.538 349.826 359.154V369.522C351.746 372.594 358.274 379.698 358.274 379.698H379.202Z" fill="white" stroke="black" stroke-width="1.92"/>
<path d="M382.082 387.762C380.162 378.738 378.242 372.018 368.45 365.298C358.466 372.018 356.738 378.738 354.626 387.762H382.082Z" fill="white" stroke="black" stroke-width="1.92"/>
<path d="M387.266 392.754V379.698C382.658 381.618 378.626 384.114 377.09 386.994C375.554 379.698 372.29 376.626 368.258 372.21C364.226 376.626 361.538 379.89 359.81 386.994C358.274 384.114 354.242 381.426 349.826 379.698V392.754H387.266Z" fill="white" stroke="black" stroke-width="1.92"/>
<path d="M697.346 440.754V401.586C698.69 396.594 703.106 391.986 706.178 391.218V356.658L699.074 360.498L690.818 396.786V440.946L697.346 440.754Z" fill="white" stroke="black" stroke-width="1.92"/>
<path d="M697.346 440.946V401.586C698.69 396.594 703.106 391.986 706.178 391.218V354.354C701.378 354.354 699.074 360.498 699.074 360.498L690.818 396.786V440.754L697.346 440.946Z" fill="white" stroke="black" stroke-width="1.92"/>
<path d="M702.53 450.93C699.266 449.586 694.466 445.362 694.466 441.33V392.178L696.77 388.338H612.866L616.13 392.178V441.33C615.989 443.364 615.311 445.325 614.164 447.012C613.017 448.699 611.442 450.051 609.602 450.93H702.53Z" fill="white" stroke="black" stroke-width="1.92"/>
<path d="M626.69 450.93C629.954 449.586 634.754 445.362 634.754 441.33V394.674L627.842 388.146H684.674L677.762 394.674V441.33C677.762 445.362 682.562 449.586 685.826 450.93H626.69Z" fill="white" stroke="black" stroke-width="1.92"/>
<path d="M634.562 450.93C637.826 449.586 642.818 445.362 642.818 441.33V399.09L638.21 392.754H674.306L669.698 399.09V441.33C669.698 445.362 674.498 449.586 677.954 450.93H634.562Z" fill="white" stroke="black" stroke-width="1.92"/>
<path d="M664.706 392.754H647.618V451.122H664.898L664.706 392.754Z" fill="white" stroke="black" stroke-width="1.92"/>
<path d="M688.322 408.882H681.41V440.562H688.322V408.882ZM629.186 408.882H622.466V440.562H629.378L629.186 408.882ZM694.274 355.506H685.826V388.146H694.274V355.506ZM694.274 349.362H686.018V355.506H694.274V349.362ZM625.922 362.61H614.21V387.57H625.922V362.61Z" fill="white"/>
<path d="M694.274 355.506H685.826V388.146H694.274V355.506ZM694.274 355.506H686.018V349.362H694.274V355.506ZM688.322 408.882H681.41V440.562H688.322V408.882ZM629.186 408.882H622.466V440.562H629.378L629.186 408.882ZM625.922 362.61H614.21V387.57H625.922V362.61Z" stroke="black" stroke-width="1.92" stroke-linejoin="bevel"/>
<path d="M686.018 387.762V332.082C683.714 332.082 683.33 340.338 677.954 340.338C675.074 340.338 675.266 336.882 676.994 334.194C678.338 331.698 680.066 328.434 677.762 322.098C676.034 326.898 671.81 328.434 672.578 325.554C673.922 320.37 677.954 319.41 674.882 311.538C673.922 318.066 669.698 317.874 670.658 314.034C671.81 309.618 674.306 307.698 671.234 301.554C669.506 308.658 667.394 308.274 667.394 303.858C667.394 297.33 667.394 290.418 659.33 287.922C659.33 287.922 658.754 282.162 655.682 282.162C652.802 282.162 652.226 287.922 652.226 287.922C643.97 290.418 644.162 297.522 644.162 303.858C644.162 308.274 642.05 308.658 640.322 301.554C637.25 307.698 639.746 309.618 640.898 314.034C641.858 317.874 637.634 318.066 636.674 311.538C633.602 319.41 637.634 320.37 638.978 325.554C639.746 328.434 635.522 326.898 633.794 322.098C631.49 328.434 633.218 331.698 634.562 334.194C636.098 336.882 636.482 340.338 633.602 340.338C628.226 340.338 627.842 332.274 625.538 332.274V387.762H686.018ZM699.266 345.714V388.146H694.466V345.714C696.194 344.754 697.73 344.754 699.266 345.714Z" fill="white" stroke="black" stroke-width="1.92"/>
<path d="M698.882 373.17C692.93 376.242 686.978 379.89 685.442 388.146H698.882V373.17ZM615.938 360.498V388.146H612.098V360.498C613.25 359.922 614.978 359.73 615.938 360.498Z" fill="white" stroke="black" stroke-width="1.92"/>
<path d="M612.098 373.17C618.05 376.05 624.002 379.506 625.538 387.954H612.098V373.17ZM651.65 308.466L648.194 305.586V301.746C649.346 301.746 650.114 302.322 651.074 303.666C651.447 302.433 652.064 301.287 652.888 300.298C653.713 299.308 654.728 298.495 655.874 297.906C657.036 298.453 658.077 299.227 658.934 300.184C659.792 301.14 660.449 302.259 660.866 303.474C661.826 302.13 662.402 301.938 663.746 301.554V305.394L660.29 308.466H651.65Z" fill="white" stroke="black" stroke-width="1.92"/>
<path d="M649.73 317.874L648.194 314.226V309.426C649.346 309.426 650.114 310.002 651.074 311.346C651.447 310.113 652.064 308.967 652.888 307.978C653.713 306.988 654.728 306.175 655.874 305.586C657.036 306.133 658.077 306.907 658.934 307.864C659.792 308.82 660.449 309.939 660.866 311.154C661.826 309.81 662.402 309.618 663.746 309.426V314.226L662.21 317.874H649.73Z" fill="white" stroke="black" stroke-width="1.92"/>
<path d="M649.346 330.546L644.354 324.21V318.066C646.274 318.066 647.234 319.026 648.578 321.138C649.922 316.722 652.418 315.954 655.874 313.842C659.522 315.762 662.018 316.722 663.17 320.946C664.706 318.834 665.666 318.258 667.586 318.066V324.21L662.402 330.546H649.346Z" fill="white" stroke="black" stroke-width="1.92"/>
<path d="M648.002 343.026C648.002 343.026 641.858 337.842 641.666 334.962V328.242C643.97 328.434 646.082 329.01 647.81 331.89C649.346 326.322 651.65 324.786 655.874 322.29C660.29 324.786 662.594 326.322 663.938 331.89C665.858 329.01 667.778 328.434 670.274 328.05V334.962C668.661 338.007 666.515 340.738 663.938 343.026H648.002Z" fill="white" stroke="black" stroke-width="1.92"/>
<path d="M645.506 366.066C645.506 366.066 637.058 357.042 636.866 353.394V343.026C639.938 343.41 643.01 345.522 645.314 349.938C647.234 341.298 650.306 335.346 655.874 331.122C661.634 335.346 664.706 341.298 666.626 349.938C668.93 345.522 671.81 343.41 674.882 343.026V353.394C674.306 357.042 666.434 366.066 666.434 366.066H645.506Z" fill="white" stroke="black" stroke-width="1.92"/>
<path d="M645.506 379.698C645.506 379.698 638.402 372.594 636.866 369.522V359.154C639.938 359.538 643.01 361.65 645.314 365.874C645.828 362.38 647.025 359.022 648.836 355.991C650.648 352.96 653.04 350.316 655.874 348.21C661.634 352.434 664.706 357.234 666.626 365.874C668.93 361.65 671.81 359.538 674.882 359.154V369.522C672.962 372.594 666.434 379.698 666.434 379.698H645.506Z" fill="white" stroke="black" stroke-width="1.92"/>
<path d="M642.626 387.762C644.546 378.738 646.466 372.018 656.258 365.298C666.242 372.018 667.97 378.738 670.082 387.762H642.626Z" fill="white" stroke="black" stroke-width="1.92"/>
<path d="M637.442 392.754V379.698C642.05 381.618 646.082 384.114 647.618 386.994C649.154 379.698 652.418 376.626 656.45 372.21C660.482 376.626 663.17 379.89 664.898 386.994C666.434 384.114 670.466 381.426 674.882 379.698V392.754H637.442Z" fill="white" stroke="black" stroke-width="1.92"/>
<path d="M276.866 498.546H747.842V522.546H276.866V498.546ZM264.386 522.546H760.322V546.546H264.386V522.546ZM301.634 462.45H722.882V478.002H301.634V462.45Z" fill="white" stroke="black" stroke-width="1.92"/>
<path d="M289.346 478.002H735.554V498.354H289.346V478.002ZM308.93 450.546H715.97V462.45H308.93V450.546Z" fill="white" stroke="black" stroke-width="1.92"/>
<path d="M353.09 450.546H383.81V546.546H353.09V450.546Z" fill="white" stroke="black" stroke-width="1.92"/>
<path d="M360.002 450.546H377.09V546.546H359.81L360.002 450.546ZM496.322 450.546H527.042V546.546H496.322V450.546Z" fill="white" stroke="black" stroke-width="1.92"/>
<path d="M503.426 450.546H520.706V546.546H503.426V450.546ZM640.706 450.546H671.426V546.546H640.706V450.546Z" fill="white" stroke="black" stroke-width="1.92"/>
<path d="M647.426 450.546H664.706V546.546H647.426V450.546Z" fill="white" stroke="black" stroke-width="1.92"/>
<path d="M327.362 440.754H697.922M359.618 534.45H377.282M359.618 522.354H377.282M359.618 510.45H377.282M359.618 498.354H377.282M359.618 486.45H377.282M359.618 474.354H377.282M359.618 462.45H377.282M503.618 534.45H520.13M503.618 522.354H520.13M503.618 510.45H520.13M503.618 498.354H520.13M503.618 486.45H520.13M503.618 474.354H520.13M503.618 462.45H520.13M647.234 534.45H664.898M647.234 522.354H664.898M647.234 510.45H664.898M647.234 498.354H664.898M647.234 486.45H664.898M647.234 474.354H664.898M647.234 462.45H664.898" stroke="black" stroke-width="1.92"/>
</g>
<defs>
<clipPath id="clip0_73_2">
<rect width="1024" height="768" fill="white" transform="translate(0.321838 0.689697)"/>
</clipPath>
</defs>
</svg>
